<svg class="diagram-root" style="background: #f5f6f6" xmlns="http://www.w3.org/2000/svg" xmlns:xlink="http://www.w3.org/1999/xlink"><style>.diagram-root { font-family: "Helvetica Neue", sans-serif; font-size: 12px; } .t { overflow: visible; } .t-bg { y: 40; fill: #fff;   } .th { fill: #005aa0;   } .tht { fill: #fff; font-size: 14px;  } .tf { fill: #323c46; overflow: visible; } .tf.pk { fill: #005aa0; font-weight: bold; } .tf.fk { font-weight: bold; } .ty { fill: #adb1b5; font-weight: normal; text-anchor: end; } .r { fill: transparent; stroke: #c3c3c3; stroke-width: 1; } .l { stroke: 1; } .i { fill: #c2c7ce; stroke: #c2c7ce; } .i.ix { fill: #afb3b6; stroke: #000; } .fa { fill: transparent; overflow: visible; } .fa .bg.hover { fill: #f7f7f7; } .c { cy: 12; r: 4; stroke: #d2d2dc; fill: #d2d2dc; } .hr { fill: transparent; stroke: #323c46; stroke-opacity: 0.035; stroke-width: 13; } .dc { stroke: #fa5a3c; fill: #fa5a3c; } .x { stroke: white; stroke-width: 1; } .hl .th { fill: #1b9bff; } .hl .tht {  } .fhl .bg { fill: #e7f4ff; } .fhls .bg {  } .r.hl { stroke: #1b9bff; } .dim { opacity: 0.25; }</style><g class="drawing-wrapper" transform="translate(-5.222222222222353, 17.777777777777757) scale(1,1)"><g class="rs"><path d="M 191.83 69.22 m -1, 0 a 1,1 0 1,0 2,0 a 1,1 0 1,0 -2,0 M 191.83 69.22 m -0.5, 0 a 0.5,0.5 0 1,0 1,0 a 0.5,0.5 0 1,0 -1,0  M191.83 69.22 L191.83 69.22 203.83 69.22 M 191.83 75.22 m -1, 0 a 1,1 0 1,0 2,0 a 1,1 0 1,0 -2,0 M 191.83 75.22 m -0.5, 0 a 0.5,0.5 0 1,0 1,0 a 0.5,0.5 0 1,0 -1,0  M191.83 75.22 L191.83 75.22 198.83 69.22 191.83 63.22 M 191.83 63.22 m -1, 0 a 1,1 0 1,0 2,0 a 1,1 0 1,0 -2,0 M 191.83 63.22 m -0.5, 0 a 0.5,0.5 0 1,0 1,0 a 0.5,0.5 0 1,0 -1,0  M203.83 69.22 C 266.438 69.22, 261.71000000000004 428.22, 211.71 428.22 M 199.71 428.22 m -1, 0 a 1,1 0 1,0 2,0 a 1,1 0 1,0 -2,0 M 199.71 428.22 m -0.5, 0 a 0.5,0.5 0 1,0 1,0 a 0.5,0.5 0 1,0 -1,0  M199.71 428.22 L199.71 428.22 211.71 428.22 M205.71 434.22 L205.71 434.22 205.71 422.22" id="h1277105345" class="r"></path><path d="M 191.83 94.22 m -1, 0 a 1,1 0 1,0 2,0 a 1,1 0 1,0 -2,0 M 191.83 94.22 m -0.5, 0 a 0.5,0.5 0 1,0 1,0 a 0.5,0.5 0 1,0 -1,0  M191.83 94.22 L191.83 94.22 203.83 94.22 M 191.83 100.22 m -1, 0 a 1,1 0 1,0 2,0 a 1,1 0 1,0 -2,0 M 191.83 100.22 m -0.5, 0 a 0.5,0.5 0 1,0 1,0 a 0.5,0.5 0 1,0 -1,0  M191.83 100.22 L191.83 100.22 198.83 94.22 191.83 88.22 M 191.83 88.22 m -1, 0 a 1,1 0 1,0 2,0 a 1,1 0 1,0 -2,0 M 191.83 88.22 m -0.5, 0 a 0.5,0.5 0 1,0 1,0 a 0.5,0.5 0 1,0 -1,0  M203.83 94.22 C 258.294 94.22, 256.62 265.22, 206.62 265.22 M 194.62 265.22 m -1, 0 a 1,1 0 1,0 2,0 a 1,1 0 1,0 -2,0 M 194.62 265.22 m -0.5, 0 a 0.5,0.5 0 1,0 1,0 a 0.5,0.5 0 1,0 -1,0  M194.62 265.22 L194.62 265.22 206.62 265.22 M200.62 271.22 L200.62 271.22 200.62 259.22" id="h1882043173" class="r"></path><path d="M 627.22 83.67 m -1, 0 a 1,1 0 1,0 2,0 a 1,1 0 1,0 -2,0 M 627.22 83.67 m -0.5, 0 a 0.5,0.5 0 1,0 1,0 a 0.5,0.5 0 1,0 -1,0  M627.22 83.67 L627.22 83.67 615.22 83.67 M 627.22 89.67 m -1, 0 a 1,1 0 1,0 2,0 a 1,1 0 1,0 -2,0 M 627.22 89.67 m -0.5, 0 a 0.5,0.5 0 1,0 1,0 a 0.5,0.5 0 1,0 -1,0  M627.22 89.67 L627.22 89.67 620.22 83.67 627.22 77.67 M 627.22 77.67 m -1, 0 a 1,1 0 1,0 2,0 a 1,1 0 1,0 -2,0 M 627.22 77.67 m -0.5, 0 a 0.5,0.5 0 1,0 1,0 a 0.5,0.5 0 1,0 -1,0  M615.22 83.67 Q 513.07 83.67, 410.92 174.45 T 206.62 265.22 M 194.62 265.22 m -1, 0 a 1,1 0 1,0 2,0 a 1,1 0 1,0 -2,0 M 194.62 265.22 m -0.5, 0 a 0.5,0.5 0 1,0 1,0 a 0.5,0.5 0 1,0 -1,0  M194.62 265.22 L194.62 265.22 206.62 265.22 M200.62 271.22 L200.62 271.22 200.62 259.22" id="h1248694035" class="r"></path><path d="M 627.22 108.67 m -1, 0 a 1,1 0 1,0 2,0 a 1,1 0 1,0 -2,0 M 627.22 108.67 m -0.5, 0 a 0.5,0.5 0 1,0 1,0 a 0.5,0.5 0 1,0 -1,0  M627.22 108.67 L627.22 108.67 615.22 108.67 M 627.22 114.67 m -1, 0 a 1,1 0 1,0 2,0 a 1,1 0 1,0 -2,0 M 627.22 114.67 m -0.5, 0 a 0.5,0.5 0 1,0 1,0 a 0.5,0.5 0 1,0 -1,0  M627.22 114.67 L627.22 114.67 620.22 108.67 627.22 102.67 M 627.22 102.67 m -1, 0 a 1,1 0 1,0 2,0 a 1,1 0 1,0 -2,0 M 627.22 102.67 m -0.5, 0 a 0.5,0.5 0 1,0 1,0 a 0.5,0.5 0 1,0 -1,0  M615.22 108.67 Q 514.35 108.67, 413.47 268.45 T 211.71 428.22 M 199.71 428.22 m -1, 0 a 1,1 0 1,0 2,0 a 1,1 0 1,0 -2,0 M 199.71 428.22 m -0.5, 0 a 0.5,0.5 0 1,0 1,0 a 0.5,0.5 0 1,0 -1,0  M199.71 428.22 L199.71 428.22 211.71 428.22 M205.71 434.22 L205.71 434.22 205.71 422.22" id="h1130742295" class="r"></path><path d="M 199.71 453.22 m -1, 0 a 1,1 0 1,0 2,0 a 1,1 0 1,0 -2,0 M 199.71 453.22 m -0.5, 0 a 0.5,0.5 0 1,0 1,0 a 0.5,0.5 0 1,0 -1,0  M199.71 453.22 L199.71 453.22 211.71 453.22 M 199.71 459.22 m -1, 0 a 1,1 0 1,0 2,0 a 1,1 0 1,0 -2,0 M 199.71 459.22 m -0.5, 0 a 0.5,0.5 0 1,0 1,0 a 0.5,0.5 0 1,0 -1,0  M199.71 459.22 L199.71 459.22 206.71 453.22 199.71 447.22 M 199.71 447.22 m -1, 0 a 1,1 0 1,0 2,0 a 1,1 0 1,0 -2,0 M 199.71 447.22 m -0.5, 0 a 0.5,0.5 0 1,0 1,0 a 0.5,0.5 0 1,0 -1,0  M211.71 453.22 Q 315.79 453.22, 419.86 480.67 T 628 508.11 M 640 508.11 m -1, 0 a 1,1 0 1,0 2,0 a 1,1 0 1,0 -2,0 M 640 508.11 m -0.5, 0 a 0.5,0.5 0 1,0 1,0 a 0.5,0.5 0 1,0 -1,0  M640 508.11 L640 508.11 628 508.11 M634 514.11 L634 514.11 634 502.11" id="h133153459" class="r"></path><path d="M 639.78 332.44 m -1, 0 a 1,1 0 1,0 2,0 a 1,1 0 1,0 -2,0 M 639.78 332.44 m -0.5, 0 a 0.5,0.5 0 1,0 1,0 a 0.5,0.5 0 1,0 -1,0  M639.78 332.44 L639.78 332.44 627.78 332.44 M 639.78 338.44 m -1, 0 a 1,1 0 1,0 2,0 a 1,1 0 1,0 -2,0 M 639.78 338.44 m -0.5, 0 a 0.5,0.5 0 1,0 1,0 a 0.5,0.5 0 1,0 -1,0  M639.78 338.44 L639.78 338.44 632.78 332.44 639.78 326.44 M 639.78 326.44 m -1, 0 a 1,1 0 1,0 2,0 a 1,1 0 1,0 -2,0 M 639.78 326.44 m -0.5, 0 a 0.5,0.5 0 1,0 1,0 a 0.5,0.5 0 1,0 -1,0  M627.78 332.44 Q 523.77 332.44, 419.75 380.33 T 211.71 428.22 M 199.71 428.22 m -1, 0 a 1,1 0 1,0 2,0 a 1,1 0 1,0 -2,0 M 199.71 428.22 m -0.5, 0 a 0.5,0.5 0 1,0 1,0 a 0.5,0.5 0 1,0 -1,0  M199.71 428.22 L199.71 428.22 211.71 428.22 M205.71 434.22 L205.71 434.22 205.71 422.22" id="h221257298" class="r"></path></g><g class="hrs"></g><g class="ts"><svg width="167.4" height="100" x="27.22" y="208.22" id="h3708248841" class="t"><rect height="40" width="167.4" class="th"></rect><text x="13" y="25" class="tht">Departments</text><rect height="60" width="167.4" class="t-bg" y="40"></rect><text x="13" y="61" class="tf pk">dept_no<tspan x="154.4" class="ty">char(4)</tspan></text><path d="M7,14A2,2 0 0,1 5,12A2,2 0 0,1 7,10A2,2 0 0,1 9,12A2,2 0 0,1 7,14M12.65,10C11.83,7.67 9.61,6 7, 6A6, 6 0 0, 0 1, 12A6, 6 0 0, 0 7, 18C9.61, 18 11.83, 16.33 12.65, 14H17V18H21V14H23V10H12.65Z" class="i pk" transform="translate(96.390234375, 48) scale(0.65)"></path><text x="13" y="86" class="tf">dept_name<tspan x="154.4" class="ty">varchar(30)</tspan></text></svg><svg width="147.39" height="100" x="44.44" y="12.22" id="h3353995054" class="t"><rect height="40" width="147.39" class="th"></rect><text x="13" y="25" class="tht">Dept_Emp</text><rect height="60" width="147.39" class="t-bg" y="40"></rect><text x="13" y="61" class="tf pk">emp_no<tspan x="134.39" class="ty">INT</tspan></text><path d="M7,14A2,2 0 0,1 5,12A2,2 0 0,1 7,10A2,2 0 0,1 9,12A2,2 0 0,1 7,14M12.65,10C11.83,7.67 9.61,6 7, 6A6, 6 0 0, 0 1, 12A6, 6 0 0, 0 7, 18C9.61, 18 11.83, 16.33 12.65, 14H17V18H21V14H23V10H12.65Z" class="i pk" transform="translate(95.05992187499999, 48) scale(0.65)"></path><text x="13" y="86" class="tf pk">dept_no<tspan x="134.39" class="ty">char(4)</tspan></text><path d="M7,14A2,2 0 0,1 5,12A2,2 0 0,1 7,10A2,2 0 0,1 9,12A2,2 0 0,1 7,14M12.65,10C11.83,7.67 9.61,6 7, 6A6, 6 0 0, 0 1, 12A6, 6 0 0, 0 7, 18C9.61, 18 11.83, 16.33 12.65, 14H17V18H21V14H23V10H12.65Z" class="i pk" transform="translate(76.38023437499999, 73) scale(0.65)"></path></svg><svg width="147.39" height="100" x="627.22" y="26.67" id="h754932316" class="t"><rect height="40" width="147.39" class="th"></rect><text x="13" y="25" class="tht">Dept_Manager</text><rect height="60" width="147.39" class="t-bg" y="40"></rect><text x="13" y="61" class="tf pk">dept_no<tspan x="134.39" class="ty">char(4)</tspan></text><path d="M7,14A2,2 0 0,1 5,12A2,2 0 0,1 7,10A2,2 0 0,1 9,12A2,2 0 0,1 7,14M12.65,10C11.83,7.67 9.61,6 7, 6A6, 6 0 0, 0 1, 12A6, 6 0 0, 0 7, 18C9.61, 18 11.83, 16.33 12.65, 14H17V18H21V14H23V10H12.65Z" class="i pk" transform="translate(76.38023437499999, 48) scale(0.65)"></path><text x="13" y="86" class="tf pk">emp_no<tspan x="134.39" class="ty">INT</tspan></text><path d="M7,14A2,2 0 0,1 5,12A2,2 0 0,1 7,10A2,2 0 0,1 9,12A2,2 0 0,1 7,14M12.65,10C11.83,7.67 9.61,6 7, 6A6, 6 0 0, 0 1, 12A6, 6 0 0, 0 7, 18C9.61, 18 11.83, 16.33 12.65, 14H17V18H21V14H23V10H12.65Z" class="i pk" transform="translate(95.05992187499999, 73) scale(0.65)"></path></svg><svg width="163.38" height="225" x="36.33" y="371.22" id="h3299212598" class="t"><rect height="40" width="163.38" class="th"></rect><text x="13" y="25" class="tht">Employees</text><rect height="185" width="163.38" class="t-bg" y="40"></rect><text x="13" y="61" class="tf pk">emp_no<tspan x="150.38" class="ty">INT</tspan></text><path d="M7,14A2,2 0 0,1 5,12A2,2 0 0,1 7,10A2,2 0 0,1 9,12A2,2 0 0,1 7,14M12.65,10C11.83,7.67 9.61,6 7, 6A6, 6 0 0, 0 1, 12A6, 6 0 0, 0 7, 18C9.61, 18 11.83, 16.33 12.65, 14H17V18H21V14H23V10H12.65Z" class="i pk" transform="translate(111.049921875, 48) scale(0.65)"></path><text x="13" y="86" class="tf fk">emp_title_id<tspan x="150.38" class="ty">char(5)</tspan></text><text x="13" y="111" class="tf">birth_date<tspan x="150.38" class="ty">date</tspan></text><text x="13" y="136" class="tf">first_name<tspan x="150.38" class="ty">varchar(30)</tspan></text><text x="13" y="161" class="tf">last_name<tspan x="150.38" class="ty">varchar(30)</tspan></text><text x="13" y="186" class="tf">sex<tspan x="150.38" class="ty">char(1)</tspan></text><text x="13" y="211" class="tf">hire_date<tspan x="150.38" class="ty">date</tspan></text></svg><svg width="128.7" height="100" x="639.78" y="275.44" id="h3858243705" class="t"><rect height="40" width="128.7" class="th"></rect><text x="13" y="25" class="tht">Salaries</text><rect height="60" width="128.7" class="t-bg" y="40"></rect><text x="13" y="61" class="tf pk">emp_no<tspan x="115.69999999999999" class="ty">INT</tspan></text><path d="M7,14A2,2 0 0,1 5,12A2,2 0 0,1 7,10A2,2 0 0,1 9,12A2,2 0 0,1 7,14M12.65,10C11.83,7.67 9.61,6 7, 6A6, 6 0 0, 0 1, 12A6, 6 0 0, 0 7, 18C9.61, 18 11.83, 16.33 12.65, 14H17V18H21V14H23V10H12.65Z" class="i pk" transform="translate(76.36992187499999, 48) scale(0.65)"></path><text x="13" y="86" class="tf">salary<tspan x="115.69999999999999" class="ty">INT</tspan></text></svg><svg width="138.7" height="100" x="640" y="451.11" id="h3517680912" class="t"><rect height="40" width="138.7" class="th"></rect><text x="13" y="25" class="tht">Titles</text><rect height="60" width="138.7" class="t-bg" y="40"></rect><text x="13" y="61" class="tf pk">title_id<tspan x="125.69999999999999" class="ty">char(5)</tspan></text><path d="M7,14A2,2 0 0,1 5,12A2,2 0 0,1 7,10A2,2 0 0,1 9,12A2,2 0 0,1 7,14M12.65,10C11.83,7.67 9.61,6 7, 6A6, 6 0 0, 0 1, 12A6, 6 0 0, 0 7, 18C9.61, 18 11.83, 16.33 12.65, 14H17V18H21V14H23V10H12.65Z" class="i pk" transform="translate(67.69023437499999, 48) scale(0.65)"></path><text x="13" y="86" class="tf">title<tspan x="125.69999999999999" class="ty">varchar(30)</tspan></text></svg></g></g><text class="qdbd-link" x="10" y="20">www.quickdatabasediagrams.com</text></svg>